<svg xmlns="http://www.w3.org/2000/svg" viewBox="0 0 100 100">
  <polygon points="50,4 93,25 93,75 50,96 7,75 7,25" fill="#326ce5" stroke="#ffffff" stroke-width="5" stroke-linejoin="round" />
  <g transform="translate(50 50)" stroke="#ffffff" stroke-width="3" stroke-linecap="round" fill="none">
    <circle r="22" />
    <circle r="5" fill="#ffffff" stroke="none" />
    <g><line x1="0" y1="-5" x2="0" y2="-22" /><line x1="0" y1="-22" x2="0" y2="-30" /><circle cx="0" cy="-31.5" r="2" fill="#ffffff" stroke="none" /></g>
    <g transform="rotate(45)"><line x1="0" y1="-5" x2="0" y2="-22" /><line x1="0" y1="-22" x2="0" y2="-30" /><circle cx="0" cy="-31.5" r="2" fill="#ffffff" stroke="none" /></g>
    <g transform="rotate(90)"><line x1="0" y1="-5" x2="0" y2="-22" /><line x1="0" y1="-22" x2="0" y2="-30" /><circle cx="0" cy="-31.5" r="2" fill="#ffffff" stroke="none" /></g>
    <g transform="rotate(135)"><line x1="0" y1="-5" x2="0" y2="-22" /><line x1="0" y1="-22" x2="0" y2="-30" /><circle cx="0" cy="-31.5" r="2" fill="#ffffff" stroke="none" /></g>
    <g transform="rotate(180)"><line x1="0" y1="-5" x2="0" y2="-22" /><line x1="0" y1="-22" x2="0" y2="-30" /><circle cx="0" cy="-31.5" r="2" fill="#ffffff" stroke="none" /></g>
    <g transform="rotate(225)"><line x1="0" y1="-5" x2="0" y2="-22" /><line x1="0" y1="-22" x2="0" y2="-30" /><circle cx="0" cy="-31.5" r="2" fill="#ffffff" stroke="none" /></g>
    <g transform="rotate(270)"><line x1="0" y1="-5" x2="0" y2="-22" /><line x1="0" y1="-22" x2="0" y2="-30" /><circle cx="0" cy="-31.5" r="2" fill="#ffffff" stroke="none" /></g>
    <g transform="rotate(315)"><line x1="0" y1="-5" x2="0" y2="-22" /><line x1="0" y1="-22" x2="0" y2="-30" /><circle cx="0" cy="-31.5" r="2" fill="#ffffff" stroke="none" /></g>
  </g>
</svg>
